# xmcd
#
# Track frame offsets: 
#        150
#        22971
#        85838
#
# Disc length: 1691 seconds
#
# Revision: 0
# Processed by: cddbd v1.5.2PL0 Copyright (c) Steve Scherf et al.
# Submitted via: ExactAudioCopyFreeDBPlugin 1.0
#
DISCID=15069903
DTITLE=Gov’t Mule - Live - Posthof, Linz, 09.05.2015
DYEAR=2015
DGENRE=Blues Rock
TTITLE0=Encore:  Mr. Man
TTITLE1=Encore:  Blind Man in the Dark
TTITLE2=Encore 2:  When the World Gets Small
EXTD=
EXTT0=
EXTT1=
EXTT2=
PLAYORDER=
